<svg width="22" height="16" viewBox="0 0 22 16" fill="none" xmlns="http://www.w3.org/2000/svg">
<path d="M8.80306 10.1495L17.5815 1.37121C17.829 1.12355 18.1316 1 18.4893 1C18.8471 1 19.1495 1.12359 19.3969 1.37121L20.1492 2.1233C20.3966 2.37058 20.5202 2.67322 20.5202 3.03084C20.5202 3.38846 20.3966 3.69096 20.1492 3.93863L9.71586 14.3819C9.46845 14.6294 9.16587 14.7531 8.80808 14.7531C8.45028 14.7531 8.14796 14.6294 7.90044 14.3819L1.37111 7.84271C1.12369 7.59505 1 7.29258 1 6.93493C1 6.57727 1.12369 6.27466 1.37111 6.02739L2.1233 5.2753C2.37058 5.02763 2.67147 4.90408 3.02603 4.90408C3.38031 4.90408 3.68457 5.02767 3.93863 5.2753L8.80306 10.1495Z" fill="white" stroke="white"/>
</svg>
