<svg width="17" height="12" viewBox="0 0 17 12" fill="none" xmlns="http://www.w3.org/2000/svg">
<path d="M6.99613 7.74659L13.7418 1.00107C13.9319 0.810761 14.1645 0.71582 14.4394 0.71582C14.7143 0.71582 14.9467 0.810788 15.1368 1.00107L15.7149 1.579C15.905 1.76902 16 2.00158 16 2.27639C16 2.55119 15.905 2.78365 15.7149 2.97396L7.69756 10.9989C7.50743 11.1891 7.27493 11.2842 6.99999 11.2842C6.72504 11.2842 6.49273 11.1891 6.30252 10.9989L1.28517 5.97398C1.09505 5.78367 1 5.55125 1 5.27641C1 5.00158 1.09505 4.76905 1.28517 4.57903L1.86318 4.0011C2.0532 3.81079 2.28441 3.71585 2.55687 3.71585C2.82911 3.71585 3.06291 3.81081 3.25814 4.0011L6.99613 7.74659Z" fill="#50ACD5" stroke="#50ACD5"/>
</svg>
