<svg width="21" height="16" viewBox="0 0 21 16" fill="none" xmlns="http://www.w3.org/2000/svg">
<path d="M8.30306 10.1495L17.0815 1.37121C17.329 1.12355 17.6316 1 17.9893 1C18.3471 1 18.6495 1.12359 18.8969 1.37121L19.6492 2.1233C19.8966 2.37058 20.0202 2.67322 20.0202 3.03084C20.0202 3.38846 19.8966 3.69096 19.6492 3.93863L9.21586 14.3819C8.96845 14.6294 8.66587 14.7531 8.30808 14.7531C7.95028 14.7531 7.64796 14.6294 7.40044 14.3819L0.871109 7.84271C0.623691 7.59505 0.5 7.29258 0.5 6.93493C0.5 6.57727 0.623691 6.27466 0.871109 6.02739L1.6233 5.2753C1.87058 5.02763 2.17147 4.90408 2.52603 4.90408C2.88031 4.90408 3.18457 5.02767 3.43863 5.2753L8.30306 10.1495Z" fill="#50ACD5" stroke="#50ACD5"/>
</svg>
